<?xml version="1.0" encoding="UTF-8"?>
<svg id="Layer_2" data-name="Layer 2" xmlns="http://www.w3.org/2000/svg" xmlns:xlink="http://www.w3.org/1999/xlink" version="1.1" viewBox="0 0 835.5 48">
  <defs>
    <style>
      .cls-1 {
        clip-path: url(#clippath);
      }

      .cls-2, .cls-3, .cls-4, .cls-5, .cls-6, .cls-7, .cls-8, .cls-9, .cls-10, .cls-11, .cls-12, .cls-13, .cls-14 {
        stroke-width: 0px;
      }

      .cls-2, .cls-15, .cls-16 {
        fill: none;
      }

      .cls-3 {
        fill: url(#linear-gradient);
      }

      .cls-4 {
        opacity: .9;
      }

      .cls-4, .cls-5, .cls-6, .cls-7, .cls-9, .cls-10, .cls-11, .cls-12 {
        fill: #fff;
      }

      .cls-4, .cls-5, .cls-6, .cls-7, .cls-9, .cls-11 {
        isolation: isolate;
      }

      .cls-4, .cls-10, .cls-11, .cls-13 {
        fill-rule: evenodd;
      }

      .cls-15 {
        stroke: #fff;
        stroke-miterlimit: 10;
        stroke-width: 1.7px;
      }

      .cls-5 {
        opacity: .8;
      }

      .cls-6 {
        opacity: .9;
      }

      .cls-17 {
        clip-path: url(#clippath-1);
      }

      .cls-18 {
        clip-path: url(#clippath-2);
      }

      .cls-7 {
        opacity: .8;
      }

      .cls-8, .cls-13 {
        fill: #000;
      }

      .cls-9 {
        opacity: .8;
      }

      .cls-16 {
        stroke: gray;
        stroke-dasharray: 0 0 0 0 0 0 1.6 1.6;
        stroke-miterlimit: 1.9;
        stroke-width: .4px;
      }

      .cls-11 {
        opacity: .6;
      }

      .cls-14 {
        fill: #161b22;
      }
    </style>
    <linearGradient id="linear-gradient" x1="4696.4" y1="5505.6" x2="4795.5" y2="5603.7" gradientTransform="translate(-877.8 -1031.4) scale(.2)" gradientUnits="userSpaceOnUse">
      <stop offset="0" stop-color="#fff"/>
      <stop offset="1" stop-color="#fff"/>
    </linearGradient>
    <clipPath id="clippath">
      <rect class="cls-2" x="342.8" y="5.2" width="37.5" height="37.5"/>
    </clipPath>
    <clipPath id="clippath-1">
      <rect class="cls-2" x="567.8" y="5.2" width="37.5" height="37.5"/>
    </clipPath>
    <clipPath id="clippath-2">
      <rect class="cls-2" x="686.4" y="5.2" width="25" height="37.5"/>
    </clipPath>
  </defs>
  <g id="Layer_1-2" data-name="Layer 1-2">
    <g>
      <rect class="cls-8" width="48" height="48" rx="11.2" ry="11.2"/>
      <path class="cls-3" d="M23.9,5.4c-9.5,0-8.9,4.1-8.9,4.1v4.3h9.1v1.3h-12.7s-6.1-.7-6.1,8.9,5.3,9.3,5.3,9.3h3.2v-4.5s-.2-5.3,5.2-5.3h9s5.1,0,5.1-4.9v-8.2s.8-5-9.2-5ZM18.9,8.3c.9,0,1.6.7,1.6,1.6s-.7,1.6-1.6,1.6-1.6-.7-1.6-1.6.7-1.6,1.6-1.6Z"/>
      <path class="cls-12" d="M24.1,42.7c9.5,0,8.9-4.1,8.9-4.1v-4.3h-9.1v-1.3h12.7s6.1.7,6.1-8.9-5.3-9.3-5.3-9.3h-3.2v4.5s.2,5.3-5.2,5.3h-9s-5.1,0-5.1,4.9v8.2s-.8,5,9.2,5h0ZM29.1,39.9c-.9,0-1.6-.7-1.6-1.6s.7-1.6,1.6-1.6,1.6.7,1.6,1.6-.7,1.6-1.6,1.6Z"/>
    </g>
    <g>
      <rect class="cls-8" x="56.2" width="48" height="48" rx="11.2" ry="11.2"/>
      <path class="cls-12" d="M94.2,29.6c0-.2,0-.4.1-.5,2-7.9-2.8-17.3-11.1-22.3,3.6,4.9,5.2,10.8,3.8,16-.1.5-.3.9-.4,1.4-.2-.1-.4-.3-.7-.4,0,0-8.2-5.1-17.1-14-.2-.2,4.8,7.1,10.4,13-2.7-1.5-10-6.9-14.8-11.1.6.9,1.3,1.9,2,2.8,3.9,5,9,11.1,15.1,15.8-4.3,2.6-10.4,2.9-16.4,0-1.5-.7-2.9-1.5-4.2-2.5,2.5,4.1,6.5,7.6,11.3,9.7,5.7,2.4,11.4,2.3,15.6,0,0,0,0,0,0,0,.2,0,.4-.2.5-.3,2-1,6-2.1,8.2,2.1.6,1,1.8-4.5-2.4-9.5h0Z"/>
    </g>
    <g>
      <rect class="cls-8" x="112.5" width="48" height="48" rx="11.2" ry="11.2"/>
      <path class="cls-12" d="M123.1,24.2v2s6.2,0,6.2,0v17.7h4.4v-17.8h6.2v-1.9c0-1.1,0-2,0-2,0,0-3.8,0-8.4,0h-8.4s0,2,0,2h0Z"/>
      <path class="cls-12" d="M151.2,22.1c1.2.3,2.1.9,3,1.7.4.5,1.1,1.3,1.1,1.5,0,0-2.1,1.5-3.3,2.2,0,0-.2-.2-.4-.5-.6-.9-1.3-1.3-2.3-1.4-1.5-.1-2.4.7-2.4,1.9,0,.4,0,.6.2.9.3.7.9,1.1,2.8,1.9,3.4,1.5,4.9,2.5,5.8,3.8,1,1.5,1.2,4,.6,5.8-.8,2-2.6,3.3-5.3,3.8-.8.1-2.8.1-3.7,0-1.9-.3-3.8-1.3-4.9-2.5-.4-.5-1.3-1.8-1.2-1.8,0,0,.2-.2.4-.3.2-.1,1-.6,1.8-1l1.4-.8.3.4c.4.6,1.3,1.5,1.8,1.7,1.5.8,3.6.7,4.7-.2.4-.4.6-.8.6-1.4s0-.8-.4-1.2c-.4-.5-1.1-1-3.3-1.9-2.5-1.1-3.5-1.7-4.5-2.8-.6-.6-1.1-1.6-1.3-2.4-.2-.7-.2-2.4,0-3.1.5-2.4,2.3-4.1,4.9-4.6.9-.2,2.8-.1,3.6.1h0Z"/>
    </g>
    <g>
      <rect class="cls-8" x="168.8" width="48" height="48" rx="11.2" ry="11.2"/>
      <path class="cls-12" d="M192.8,27.5c1.9,0,3.5-1.6,3.5-3.5s-1.6-3.5-3.5-3.5-3.5,1.6-3.5,3.5,1.6,3.5,3.5,3.5Z"/>
      <path class="cls-15" d="M192.8,16.9c4.7,0,9.1.7,12.4,1.8,4,1.4,6.4,3.4,6.4,5.3s-2.6,4.1-6.8,5.6c-3.2,1.1-7.4,1.6-11.9,1.6s-8.9-.5-12.1-1.6c-4.1-1.4-6.6-3.6-6.6-5.5s2.3-3.9,6.2-5.3c3.3-1.1,7.8-1.8,12.5-1.8h0Z"/>
      <path class="cls-15" d="M186.6,20.5c2.4-4.1,5.1-7.5,7.7-9.8,3.2-2.8,6.2-3.8,7.8-2.9,1.7,1,2.3,4.3,1.4,8.7-.7,3.3-2.3,7.3-4.5,11.1-2.3,4-4.9,7.5-7.5,9.7-3.3,2.9-6.4,3.9-8.1,2.9-1.6-.9-2.2-4-1.4-8,.6-3.4,2.3-7.6,4.7-11.8h0Z"/>
      <path class="cls-15" d="M186.6,27.7c-2.4-4.1-3.9-8.2-4.6-11.6-.8-4.1-.2-7.3,1.4-8.2,1.7-1,4.9.2,8.2,3.1,2.5,2.2,5.1,5.6,7.4,9.5,2.3,4,4,8,4.7,11.3.8,4.3.2,7.5-1.5,8.5-1.6.9-4.6,0-7.7-2.8-2.6-2.3-5.5-5.8-7.9-9.9Z"/>
    </g>
    <g>
      <rect class="cls-8" x="225" width="48" height="48" rx="11.2" ry="11.2"/>
      <path class="cls-10" d="M240.6,20.6c1.1-4.5,3.9-6.8,8.4-6.8,6.8,0,7.6,5.1,11,5.9,2.2.6,4.2-.3,5.9-2.5-1.1,4.5-3.9,6.8-8.4,6.8-6.8,0-7.6-5.1-11-5.9-2.2-.6-4.2.3-5.9,2.5ZM232.1,30.8c1.1-4.5,3.9-6.8,8.4-6.8,6.8,0,7.6,5.1,11,5.9,2.2.6,4.2-.3,5.9-2.5-1.1,4.5-3.9,6.7-8.4,6.7-6.8,0-7.6-5.1-11-5.9-2.2-.6-4.2.3-5.9,2.5Z"/>
    </g>
    <g>
      <rect class="cls-8" x="281.2" width="48" height="48" rx="11.2" ry="11.2"/>
      <path class="cls-12" d="M288.8,21.2c0,0,0,0,0,0l.4-.5c0,0,.1,0,.2,0h6.7c0,0,0,0,0,.1l-.3.5c0,0-.1.1-.2.1h-6.8s0,0,0,0Z"/>
      <path class="cls-12" d="M286,23c0,0,0,0,0,0l.4-.5c0,0,.1,0,.2,0h8.5c0,0,.1,0,0,.1v.5c-.2,0-.2.1-.3.1h-8.9s0,0,0,0Z"/>
      <path class="cls-12" d="M290.5,24.7c0,0,0,0,0-.1l.3-.5c0,0,.1-.1.2-.1h3.8c0,0,.1,0,.1.1v.5c0,0-.1.1-.2.1h-4.1s0,0,0,0Z"/>
      <path class="cls-12" d="M310,20.9c-1.2.3-2,.5-3.1.8-.3,0-.3,0-.5-.2-.3-.3-.5-.5-.9-.7-1.2-.6-2.3-.4-3.4.3-1.3.8-1.9,2-1.9,3.6,0,1.5,1,2.7,2.5,2.9,1.3.2,2.3-.3,3.2-1.2.2-.2.3-.4.5-.7h-3.6c-.4,0-.5-.2-.4-.6.2-.6.7-1.6,1-2,0-.1.2-.3.5-.3h6.8c0,.5,0,1-.1,1.5-.2,1.4-.7,2.6-1.5,3.7-1.4,1.8-3.1,2.9-5.3,3.2-1.8.2-3.5-.1-5-1.2-1.4-1-2.2-2.4-2.4-4.2-.2-2,.4-3.9,1.6-5.5,1.3-1.7,3.1-2.9,5.2-3.2,1.8-.3,3.5-.1,5,.9,1,.7,1.7,1.6,2.2,2.6.1.2,0,.3-.2.3h0Z"/>
      <path class="cls-12" d="M316.2,31.3c-1.7,0-3.3-.5-4.6-1.6-1.1-1-1.8-2.2-2-3.6-.3-2.1.2-4,1.5-5.7,1.4-1.8,3-2.7,5.2-3.1,1.9-.3,3.7-.1,5.3,1,1.5,1,2.4,2.4,2.6,4.2.3,2.5-.4,4.6-2.2,6.4-1.2,1.3-2.8,2-4.5,2.4-.5,0-1,.1-1.5.2h0ZM320.7,23.7c0-.2,0-.4,0-.6-.3-1.9-2-2.9-3.8-2.5-1.7.4-2.9,1.5-3.3,3.3-.3,1.5.4,2.9,1.7,3.5,1,.5,2.1.4,3.1-.1,1.5-.8,2.3-2,2.4-3.6Z"/>
    </g>
    <g>
      <rect class="cls-8" x="337.5" width="48" height="48" rx="11.2" ry="11.2"/>
      <g class="cls-1">
        <g>
          <path class="cls-12" d="M375.8,24c0-7.9-6.4-14.3-14.3-14.3s-14.3,6.4-14.3,14.3,6.4,14.3,14.3,14.3,14.3-6.4,14.3-14.3Z"/>
          <path class="cls-14" d="M371.6,18.1c0-2.3-1.9-4.2-4.2-4.2s-4.2,1.9-4.2,4.2,1.9,4.2,4.2,4.2,4.2-1.9,4.2-4.2Z"/>
          <path class="cls-12" d="M380,9.7c0-2.3-1.9-4.2-4.2-4.2s-4.2,1.9-4.2,4.2,1.9,4.2,4.2,4.2,4.2-1.9,4.2-4.2Z"/>
          <path class="cls-14" d="M353,30.1h4.6v1.1h-5.8v-9.4h1.2v8.4h0Z"/>
          <path class="cls-14" d="M363.2,31.2v-.9c-.6.9-1.3,1.2-2.3,1.2s-2.1-.7-2.1-1.9v-5.2h1.1v4.8c0,.8.5,1.3,1.4,1.3s1.9-.9,1.9-2.3v-3.8h1.1v6.8h-1Z"/>
          <path class="cls-14" d="M372,31.4c-.4,0-.5.1-.7.1-.7,0-1-.3-1.1-1-.8.7-1.5,1-2.3,1-1.4,0-2.2-.8-2.2-2s.4-1.5,1.2-1.8c.4-.2.6-.2,2.2-.4.9-.1,1.1-.3,1.1-.8v-.3c0-.6-.5-1-1.5-1s-1.5.4-1.6,1.2h-1.1c0-.7.1-1.1.5-1.4.5-.5,1.3-.8,2.2-.8,1.7,0,2.5.6,2.5,1.8v4c0,.3.2.5.6.5s.1,0,.2,0v.8h0ZM370.1,27.8c-.4.2-.6.2-1.7.4-1.1.2-1.6.5-1.6,1.2s.5,1.1,1.3,1.1,1.2-.2,1.6-.6c.3-.3.4-.5.4-.9v-1.2h0Z"/>
          <path class="cls-16" d="M378,15.6c1.3,2.6,2,5.5,2,8.4,0,10.2-8.3,18.5-18.5,18.5s-18.5-8.3-18.5-18.5,8.3-18.5,18.5-18.5,6.5.9,9.4,2.5"/>
        </g>
      </g>
    </g>
    <g>
      <rect class="cls-8" x="393.8" width="48" height="48" rx="11.2" ry="11.2"/>
      <path class="cls-12" d="M436.2,23.5l-1.6-1c0-.1,0-.3,0-.5l1.4-1.3c.1-.1.2-.3.2-.5s-.2-.3-.3-.4l-1.7-.6c0-.1,0-.3-.1-.5l1.1-1.5c.1-.1.1-.4,0-.5s-.2-.3-.4-.3l-1.8-.3c0-.1-.1-.3-.2-.4l.8-1.7c0-.2,0-.4,0-.5s-.3-.2-.5-.2h-1.9c-.1,0-.2-.2-.3-.3l.4-1.8c0-.2,0-.4-.1-.5s-.3-.2-.5-.1l-1.8.4c-.1-.1-.2-.2-.4-.3v-1.9c0-.2,0-.4-.2-.5s-.4-.1-.5,0l-1.7.8c-.1,0-.3-.1-.4-.2l-.3-1.8c0-.2-.1-.3-.3-.4-.2,0-.4,0-.5,0l-1.5,1.1c-.1,0-.3,0-.4-.1l-.6-1.7c0-.2-.2-.3-.4-.3-.2,0-.4,0-.5.2l-1.3,1.3c-.1,0-.3,0-.5,0l-1-1.6c-.1-.2-.3-.3-.5-.3s-.4,0-.5.3l-1,1.6c-.1,0-.3,0-.5,0l-1.3-1.3c-.1-.1-.3-.2-.5-.2s-.3.2-.4.3l-.6,1.7c-.1,0-.3,0-.4.1l-1.5-1.1c-.1-.1-.4-.1-.5,0-.2,0-.3.2-.3.4l-.3,1.8c-.1,0-.3.1-.4.2l-1.7-.8c-.2,0-.4,0-.5,0s-.2.3-.2.5v1.9c0,.1-.2.2-.3.3l-1.8-.4c-.2,0-.4,0-.5.1s-.2.3-.1.5l.4,1.8c-.1.1-.2.2-.3.4h-1.9c-.2,0-.4,0-.5.2s-.1.4,0,.5l.8,1.7c0,.1-.1.3-.2.4l-1.8.3c-.2,0-.3.1-.4.3,0,.2,0,.4,0,.5l1.1,1.5c0,.1,0,.3-.1.5l-1.7.6c-.2,0-.3.2-.3.4s0,.4.2.5l1.4,1.3c0,.1,0,.3,0,.5l-1.6,1c-.2.1-.3.3-.3.5s.1.4.3.5l1.6,1c0,.1,0,.3,0,.5l-1.4,1.3c-.1.1-.2.3-.2.5s.2.3.3.4l1.7.6c0,.1,0,.3.1.5l-1.1,1.5c-.1.1-.1.4,0,.5s.2.3.4.3l1.8.3c0,.1.1.3.2.4l-.8,1.7c0,.2,0,.4,0,.5s.3.2.5.2h1.9c.1,0,.2.2.3.3l-.4,1.8c0,.2,0,.4.1.5.1.1.3.2.5.1l1.8-.4c.1,0,.2.2.4.3v1.8c0,.2,0,.4.2.5.2,0,.4.1.5,0l1.7-.8c.1,0,.3.2.4.2l.3,1.8c0,.2.1.3.3.4.2,0,.4,0,.5,0l1.5-1.1c.1,0,.3,0,.5.1l.6,1.7c0,.2.2.3.4.3.2,0,.4,0,.5-.2l1.3-1.3c.1,0,.3,0,.5,0l1,1.6c.1.2.3.3.5.3s.4,0,.5-.3l1-1.6c.1,0,.3,0,.5,0l1.3,1.3c.1.1.3.2.5.2s.3-.2.4-.3l.6-1.7c.1,0,.3,0,.5-.1l1.5,1.1c.1.1.4.1.5,0,.2,0,.3-.2.3-.4l.3-1.8c.1,0,.3-.2.4-.2l1.7.8c.2,0,.4,0,.5,0,.2,0,.2-.3.2-.5v-1.8c0,0,.2-.2.3-.3l1.8.4c.2,0,.4,0,.5-.1s.2-.3.1-.5l-.4-1.8c.1-.1.2-.2.3-.4h1.9c.2,0,.4,0,.5-.2s.1-.4,0-.5l-.8-1.7c0-.1.1-.3.2-.4l1.8-.3c.2,0,.3-.1.4-.3,0-.2,0-.4,0-.5l-1.1-1.5c0-.1,0-.3.1-.5l1.7-.6c.2,0,.3-.2.3-.4,0-.2,0-.4-.2-.5l-1.4-1.3c0-.1,0-.3,0-.5l1.6-1c.2-.1.3-.3.3-.5s-.1-.4-.3-.5h0ZM425.7,36.6c-.6-.1-1-.7-.9-1.3.1-.6.7-1,1.3-.9s1,.7.9,1.3c-.1.6-.7,1-1.3.9h0ZM425.2,33c-.5-.1-1.1.2-1.2.8l-.6,2.6c-1.7.8-3.7,1.2-5.7,1.2s-4-.5-5.8-1.3l-.6-2.6c-.1-.5-.7-.9-1.2-.8l-2.3.5c-.4-.4-.8-.9-1.2-1.4h11.2c.1,0,.2,0,.2-.1v-4c0-.1,0-.1-.2-.1h-3.3v-2.5h3.5c.3,0,1.7,0,2.2,1.9.1.5.5,2.4.7,2.9.2.6,1.1,1.9,2,1.9h5.6c0,0,.1,0,.2,0-.4.5-.8,1-1.3,1.5l-2.4-.5h0ZM409.6,36.6c-.6.1-1.2-.2-1.3-.9-.1-.6.2-1.2.9-1.3.6-.1,1.2.2,1.3.9.1.6-.2,1.2-.9,1.3ZM405.4,19.3c.2.6,0,1.2-.6,1.5-.6.2-1.2,0-1.5-.6-.2-.6,0-1.2.6-1.5.6-.2,1.2,0,1.5.6ZM404.1,22.4l2.4-1.1c.5-.2.8-.8.5-1.3l-.5-1.1h1.9v8.7h-3.9c-.3-1.2-.5-2.5-.5-3.8s0-1,0-1.5h0s0,0,0,0ZM414.6,21.6v-2.6h4.6c.2,0,1.7.3,1.7,1.4s-1.1,1.2-2,1.2h-4.3,0,0ZM431.4,23.9c0,.3,0,.7,0,1h-1.4c-.1,0-.2,0-.2.2v.6c0,1.5-.9,1.9-1.6,1.9-.7,0-1.5-.3-1.6-.7-.4-2.4-1.1-2.9-2.2-3.8,1.4-.9,2.8-2.2,2.8-3.9s-1.3-3-2.1-3.6c-1.2-.8-2.6-1-3-1h-14.5c2-2.2,4.7-3.8,7.7-4.3l1.7,1.8c.4.4,1,.4,1.4,0l1.9-1.8c4,.8,7.4,3.2,9.4,6.7l-1.3,3c-.2.5,0,1.1.5,1.3l2.5,1.1c0,.5,0,.9,0,1.4h0ZM416.9,8.9c.4-.4,1.1-.4,1.6,0,.4.4.4,1.1,0,1.6-.4.4-1.1.4-1.6,0-.4-.4-.4-1.1,0-1.6h0ZM429.9,19.4c.2-.6.9-.8,1.5-.6s.8.9.6,1.5-.9.8-1.5.6-.8-.9-.6-1.5Z"/>
    </g>
    <g>
      <rect class="cls-8" x="450" width="48" height="48" rx="11.2" ry="11.2"/>
      <path class="cls-11" d="M458.6,13.3l8-8.1v37.5l-8-8V13.3Z"/>
      <path class="cls-10" d="M489.5,13.4l-8.1-8.1.2,37.5,8-8V13.4c0,0,0,0,0,0Z"/>
      <path class="cls-4" d="M466.6,5.3l20.8,31.7-5.8,5.8-20.8-31.6,5.8-5.9h0Z"/>
      <path class="cls-13" d="M466.6,20v1.2l-6.4-9.5.6-.6,5.8,8.8h0Z"/>
    </g>
    <g>
      <rect class="cls-8" x="506.2" width="48" height="48" rx="11.2" ry="11.2"/>
      <path class="cls-12" d="M512.6,18.8s-.9-.6.2-1.5l2.5-2.2s.7-.8,1.5-.1l22.9,17.3v8.3s0,1.3-1.7,1.2l-25.3-23h0Z"/>
      <path class="cls-5" d="M518.5,24.1l-5.9,5.4s-.6.5,0,1.3l2.7,2.5s.7.7,1.6,0l6.3-4.8-4.7-4.3h0Z"/>
      <path class="cls-5" d="M528.8,24.2l10.8-8.3V7.6c0,0-.5-1.8-2.1-.9l-14.4,13.1,5.7,4.3h0Z"/>
      <path class="cls-12" d="M537.9,41.8c.6.6,1.4.4,1.4.4l8.4-4.2c1.1-.7.9-1.7.9-1.7V11.6c0-1.1-1.1-1.5-1.1-1.5l-7.3-3.5c-1.6-1-2.6.2-2.6.2,0,0,1.3-1,2,.9v32.8c0,.2,0,.5-.1.7-.2.4-.6.8-1.6.6h0c0,0,0,0,0,0Z"/>
    </g>
    <g>
      <rect class="cls-8" x="562.5" width="48" height="48" rx="11.2" ry="11.2"/>
      <g class="cls-17">
        <path class="cls-12" d="M604.5,22.3l-16.4-16.4c-.2-.2-.5-.4-.8-.5-.3-.1-.6-.2-.9-.2s-.6,0-.9.2-.6.3-.8.5l-3.4,3.4,4.3,4.3c1-.4,2.2-.1,3,.7.4.4.7.9.8,1.4s0,1.1,0,1.6l4.2,4.2c1-.4,2.2-.1,3,.7.3.3.5.6.6.9s.2.7.2,1.1,0,.8-.2,1.1c-.1.4-.4.7-.6.9-.3.3-.6.5-.9.6-.3.1-.7.2-1.1.2s-.8,0-1.1-.2c-.3-.1-.7-.4-.9-.6-.8-.8-1-2.1-.6-3.1l-3.9-3.9v10.2c.3.1.5.3.8.5.3.3.5.6.6.9s.2.7.2,1.1,0,.7-.2,1.1c-.1.3-.4.7-.6.9s-.6.5-.9.6-.7.2-1.1.2-.8,0-1.1-.2c-.3-.1-.7-.4-.9-.6-.3-.3-.5-.6-.6-.9s-.2-.7-.2-1.1,0-.8.2-1.1c.1-.4.4-.7.6-.9.3-.3.6-.5.9-.6v-10.3c-.3-.1-.7-.4-.9-.6-.4-.4-.7-.9-.8-1.5s0-1.1.2-1.7l-4.2-4.2-11.2,11.2c-.2.2-.4.5-.5.8s-.2.6-.2.9,0,.6.2.9.3.6.5.8l16.4,16.4c.2.2.5.4.8.5.3.1.6.2.9.2s.6,0,.9-.2.6-.3.8-.5l16.3-16.3c.2-.2.4-.5.5-.8s.2-.6.2-.9,0-.6-.2-.9-.3-.6-.5-.8"/>
      </g>
    </g>
    <g>
      <rect class="cls-8" x="618.8" width="48" height="48" rx="11.2" ry="11.2"/>
      <path class="cls-12" d="M642.8,5.6c-10.3,0-18.8,8.4-18.8,18.7s5.4,15.3,12.8,17.8c.9.2,1.3-.4,1.3-.9s0-1.9,0-3.5c-5.2,1.1-6.3-2.2-6.3-2.2-.8-2.2-2.1-2.7-2.1-2.7-1.7-1.2.1-1.1.1-1.1,1.9.1,2.9,1.9,2.9,1.9,1.7,2.9,4.4,2,5.5,1.6.2-1.2.7-2,1.2-2.5-4.2-.5-8.5-2.1-8.5-9.3s.7-3.7,1.9-5c-.2-.5-.8-2.4.2-5,0,0,1.6-.5,5.2,1.9,1.5-.4,3.1-.6,4.7-.6,1.6,0,3.2.2,4.7.6,3.6-2.4,5.2-1.9,5.2-1.9,1,2.6.4,4.5.2,5,1.2,1.3,1.9,3,1.9,5,0,7.2-4.4,8.8-8.6,9.2.7.6,1.3,1.7,1.3,3.5,0,2.5,0,4.5,0,5.2s.3,1.1,1.3.9c7.5-2.5,12.8-9.5,12.8-17.8s-8.4-18.8-18.8-18.8h0ZM631,32.3c0,0-.2.1-.3,0-.1,0-.2-.2-.2-.3,0,0,.2-.1.3,0,.1,0,.2.2.2.3ZM631.9,33.2c0,0-.3,0-.4,0s-.2-.3,0-.4c0,0,.3,0,.4,0s.2.3,0,.4ZM632.6,34.2c-.1,0-.3,0-.4-.2-.1-.2-.1-.4,0-.5.1,0,.3,0,.4.2.1.2.1.4,0,.5ZM633.7,35.4c0,.1-.3,0-.5,0s-.2-.4-.1-.5c0-.1.3,0,.5,0,.2.2.2.4,0,.5ZM635,35.8c0,.2-.3.2-.5.2-.2,0-.3-.2-.3-.4,0-.2.3-.2.5-.2.2,0,.3.2.3.4ZM636.6,36c0,.2-.2.3-.4.3-.2,0-.4-.1-.4-.3s.2-.3.4-.3c.2,0,.4.1.4.3ZM638.2,36c0,.2-.1.3-.3.3-.2,0-.4,0-.5-.2s.1-.3.3-.3c.2,0,.4,0,.5.2h0Z"/>
    </g>
    <g>
      <rect class="cls-8" x="675" width="48" height="48" rx="11.2" ry="11.2"/>
      <g class="cls-18">
        <g>
          <path class="cls-7" d="M692.7,42.8c3.5,0,6.2-2.8,6.2-6.2v-6.2h-6.2c-3.5,0-6.2,2.8-6.2,6.2s2.8,6.2,6.2,6.2Z"/>
          <path class="cls-12" d="M686.4,24c0-3.5,2.8-6.2,6.2-6.2h6.2v12.5h-6.2c-3.5,0-6.2-2.8-6.2-6.2Z"/>
          <path class="cls-7" d="M686.4,11.5c0-3.4,2.8-6.2,6.2-6.2h6.2v12.5h-6.2c-3.5,0-6.2-2.8-6.2-6.2Z"/>
          <path class="cls-6" d="M698.9,5.2h6.2c3.5,0,6.2,2.8,6.2,6.2s-2.8,6.2-6.2,6.2h-6.2V5.2Z"/>
          <path class="cls-9" d="M711.4,24c0,3.5-2.8,6.2-6.2,6.2s-6.2-2.8-6.2-6.2,2.8-6.2,6.2-6.2,6.2,2.8,6.2,6.2Z"/>
        </g>
      </g>
    </g>
    <g>
      <rect class="cls-8" x="731.2" width="48" height="48" rx="11.2" ry="11.2"/>
      <path class="cls-12" d="M742,33.4V12.8c0-.1,0-.2.2-.2.3,0,.7,0,1.1,0,.5,0,1,0,1.5,0,.5,0,1.1,0,1.7,0,.6,0,1.2,0,1.8,0,1.6,0,3,.2,4.1.6,1,.3,1.9.9,2.7,1.6.6.6,1.1,1.4,1.5,2.3.3.8.5,1.7.5,2.6,0,1.7-.4,3.1-1.2,4.3s-1.9,2-3.2,2.4c-1.4.5-2.9.7-4.5.7s-.8,0-1,0-.5,0-.9,0v6.4c0,.1,0,.3-.2.3h-3.9c-.2,0-.2,0-.2-.3h0ZM746.4,16.4v6.7c.3,0,.5,0,.8,0h1.1c.8,0,1.6-.1,2.3-.4.6-.2,1.2-.6,1.6-1.1.4-.5.6-1.2.6-2.1,0-.6-.1-1.2-.5-1.8-.3-.5-.8-.9-1.4-1.1-.7-.3-1.5-.4-2.4-.4-.5,0-1,0-1.4,0-.4,0-.7,0-.8,0Z"/>
      <path class="cls-12" d="M769.7,21.9c-.6-.3-1.2-.5-1.9-.7-.7-.2-1.5-.3-2.2-.3-.4,0-.8,0-1.2.1-.3,0-.5.2-.6.4,0,.2-.2.4-.2.5s0,.4.2.5c.2.2.4.4.7.5.5.2.9.5,1.4.7,1.1.4,2.1.9,3.1,1.5.7.4,1.2,1,1.6,1.7.3.6.5,1.3.5,2.1,0,.9-.3,1.9-.8,2.7-.6.8-1.3,1.4-2.2,1.8-1,.4-2.2.6-3.6.6s-1.8,0-2.7-.3c-.7-.1-1.4-.3-2-.6-.1,0-.2-.2-.2-.4v-3.5c0,0,0-.1,0-.2s.1,0,.2,0c.8.5,1.6.8,2.5,1,.8.2,1.6.3,2.4.3s1.3-.1,1.7-.3c.3-.1.5-.5.5-.8s-.2-.5-.5-.8c-.3-.3-1-.6-2-.9-1-.4-2-.8-2.8-1.4-.6-.4-1.1-1-1.5-1.7-.3-.6-.5-1.3-.5-2,0-.9.2-1.7.7-2.4.5-.8,1.2-1.4,2.1-1.8.9-.5,2.1-.7,3.5-.7s1.7,0,2.5.2c.6,0,1.2.2,1.7.5,0,0,.2.1.2.2,0,0,0,.2,0,.2v3.3c0,0,0,.2,0,.2-.2,0-.3,0-.4,0h0Z"/>
    </g>
    <g>
      <rect class="cls-8" x="787.5" width="48" height="48" rx="11.2" ry="11.2"/>
      <path class="cls-12" d="M810.7,28.6h-7.4l-1.5,4.7c0,.2-.2.3-.4.3h-3.8c-.2,0-.3-.1-.2-.4l6.4-18.5c0-.2.1-.4.2-.7,0-.4.1-.9.1-1.3,0-.1,0-.2.2-.2h5.2c.2,0,.2,0,.3.2l7.3,20.6c0,.2,0,.3-.2.3h-4.2c-.1,0-.3,0-.3-.2l-1.6-4.8h0ZM804.4,24.5h5.1c-.1-.4-.3-.9-.5-1.4-.2-.5-.4-1.1-.5-1.7-.2-.6-.4-1.2-.6-1.8s-.4-1.2-.5-1.8c-.2-.6-.3-1.1-.4-1.6h0c-.2.9-.4,1.7-.7,2.6-.3,1-.6,2-.9,3-.3,1-.6,2-.9,2.8h0Z"/>
      <path class="cls-12" d="M821.5,16c-.7,0-1.3-.2-1.8-.7-.5-.5-.7-1.2-.7-1.8,0-.7.2-1.3.7-1.8s1.1-.7,1.8-.7,1.4.2,1.8.7c.4.5.7,1.1.7,1.8,0,.7-.2,1.3-.7,1.8-.5.5-1.1.7-1.8.7h0ZM819.3,33.3v-15.4c0-.2,0-.3.3-.3h4c.2,0,.3.1.3.3v15.4c0,.2,0,.3-.3.3h-3.9c-.2,0-.3-.1-.3-.3h0Z"/>
    </g>
  </g>
</svg>