<?xml version="1.0" encoding="UTF-8"?>
<svg id="Layer_1" data-name="Layer 1" xmlns="http://www.w3.org/2000/svg" xmlns:xlink="http://www.w3.org/1999/xlink" viewBox="0 0 835.5 48">
  <defs>
    <style>
      .cls-1 {
        clip-path: url(#clippath);
      }

      .cls-2, .cls-3, .cls-4 {
        fill: none;
      }

      .cls-2, .cls-5, .cls-6, .cls-7, .cls-8, .cls-9, .cls-10, .cls-11, .cls-12, .cls-13, .cls-14, .cls-15, .cls-16 {
        stroke-width: 0px;
      }

      .cls-3 {
        stroke: #fff;
        stroke-miterlimit: 10;
        stroke-width: 1.67px;
      }

      .cls-5 {
        opacity: .72;
      }

      .cls-5, .cls-6, .cls-7, .cls-8, .cls-9, .cls-10, .cls-11, .cls-12, .cls-13, .cls-15 {
        fill: #fff;
      }

      .cls-6 {
        opacity: .78;
      }

      .cls-7 {
        opacity: .81;
      }

      .cls-8 {
        opacity: .8;
      }

      .cls-8, .cls-11, .cls-13, .cls-16 {
        fill-rule: evenodd;
      }

      .cls-17 {
        clip-path: url(#clippath-1);
      }

      .cls-18 {
        clip-path: url(#clippath-2);
      }

      .cls-4 {
        stroke: gray;
        stroke-dasharray: 0 0 1.62 1.62;
        stroke-miterlimit: 1.88;
        stroke-width: .43px;
      }

      .cls-9 {
        opacity: .89;
      }

      .cls-10 {
        opacity: .97;
      }

      .cls-11 {
        opacity: .95;
      }

      .cls-12 {
        opacity: .93;
      }
    </style>
    <clipPath id="clippath">
      <rect class="cls-2" x="399" y="5.25" width="37.5" height="37.5"/>
    </clipPath>
    <clipPath id="clippath-1">
      <rect class="cls-2" x="567.75" y="5.25" width="37.5" height="37.5"/>
    </clipPath>
    <clipPath id="clippath-2">
      <rect class="cls-2" x="686.44" y="5.25" width="25.01" height="37.5"/>
    </clipPath>
  </defs>
  <g>
    <rect class="cls-14" width="48" height="48" rx="11.25" ry="11.25"/>
    <path class="cls-15" d="M20.77,39.47c-8.56,0-15.52-6.96-15.52-15.52s6.96-15.52,15.52-15.52c5.52,0,10.67,2.97,13.44,7.75l-6.72,3.89c-1.39-2.39-3.96-3.88-6.72-3.88-4.28,0-7.76,3.48-7.76,7.76s3.48,7.76,7.76,7.76c2.76,0,5.34-1.49,6.72-3.88l6.72,3.89c-2.77,4.78-7.92,7.75-13.44,7.75Z"/>
    <path class="cls-15" d="M36.28,23.09h-1.72v-1.72h-1.72v1.72h-1.72v1.72h1.72v1.72h1.72v-1.72h1.72v-1.72Z"/>
    <path class="cls-15" d="M42.75,23.09h-1.72v-1.72h-1.72v1.72h-1.72v1.72h1.72v1.72h1.72v-1.72h1.72v-1.72Z"/>
  </g>
  <g>
    <rect class="cls-14" x="56.25" width="48" height="48" rx="11.25" ry="11.25"/>
    <path class="cls-15" d="M80.11,5.44c-9.52,0-8.93,4.13-8.93,4.13v4.28h9.1v1.28h-12.69s-6.09-.69-6.09,8.91,5.32,9.27,5.32,9.27h3.17v-4.46s-.17-5.32,5.23-5.32h9.01s5.06.08,5.06-4.89v-8.22s.77-4.98-9.18-4.98ZM75.11,8.31c.9,0,1.63.73,1.63,1.63s-.73,1.63-1.63,1.63-1.63-.73-1.63-1.63.73-1.63,1.63-1.63Z"/>
    <path class="cls-15" d="M80.39,42.74c9.52,0,8.93-4.13,8.93-4.13v-4.28h-9.1v-1.28h12.69s6.09.69,6.09-8.91-5.32-9.26-5.32-9.26h-3.17v4.46s.17,5.32-5.23,5.32h-9.01s-5.06-.08-5.06,4.89v8.22s-.77,4.98,9.18,4.98ZM85.39,39.87c-.9,0-1.63-.73-1.63-1.63s.73-1.63,1.63-1.63,1.63.73,1.63,1.63-.73,1.63-1.63,1.63Z"/>
  </g>
  <g>
    <rect class="cls-14" x="112.5" width="48" height="48" rx="11.25" ry="11.25"/>
    <path class="cls-15" d="M150.5,29.63c.05-.18.09-.36.14-.54,1.99-7.92-2.85-17.33-11.08-22.26,3.62,4.89,5.2,10.81,3.8,15.97-.14.45-.27.9-.45,1.36-.18-.14-.41-.27-.72-.41,0,0-8.19-5.07-17.06-13.98-.23-.23,4.75,7.1,10.36,13.03-2.67-1.49-10.04-6.88-14.75-11.13.59.95,1.27,1.9,1.99,2.76,3.89,4.98,9,11.08,15.11,15.79-4.3,2.62-10.36,2.85-16.38,0-1.49-.68-2.9-1.54-4.21-2.49,2.53,4.07,6.47,7.6,11.26,9.68,5.7,2.44,11.4,2.31,15.61.05,0,0,.05,0,.05-.05.18-.09.36-.23.54-.32,2.04-1.04,6.02-2.08,8.19,2.08.63.95,1.76-4.48-2.4-9.55Z"/>
  </g>
  <g>
    <rect class="cls-14" x="168.75" width="48" height="48" rx="11.25" ry="11.25"/>
    <path class="cls-15" d="M181.37,40.11l3.67-2.22c.71,1.26,1.35,2.32,2.9,2.32s2.42-.58,2.42-2.84v-15.34h4.51v15.4c0,4.67-2.74,6.8-6.73,6.8-3.61,0-5.7-1.87-6.77-4.12"/>
    <path class="cls-15" d="M197.32,39.63l3.67-2.13c.97,1.58,2.22,2.74,4.45,2.74,1.87,0,3.06-.93,3.06-2.22,0-1.55-1.22-2.09-3.29-3l-1.13-.48c-3.25-1.39-5.41-3.13-5.41-6.8,0-3.38,2.58-5.96,6.61-5.96,2.87,0,4.93,1,6.41,3.61l-3.51,2.26c-.77-1.39-1.61-1.93-2.9-1.93s-2.16.84-2.16,1.93c0,1.35.84,1.9,2.77,2.74l1.13.48c3.83,1.64,5.99,3.32,5.99,7.09,0,4.06-3.19,6.28-7.48,6.28s-6.9-2-8.22-4.61"/>
  </g>
  <g>
    <rect class="cls-14" x="225" width="48" height="48" rx="11.25" ry="11.25"/>
    <path class="cls-15" d="M235.61,24.16l-.02,1.97h6.25v17.75h4.42v-17.75h6.25v-1.93c0-1.07-.02-1.96-.05-1.98-.02-.03-3.82-.05-8.43-.04l-8.39.02-.02,1.96Z"/>
    <path class="cls-15" d="M263.73,22.15c1.22.3,2.15.85,3,1.73.44.47,1.1,1.33,1.15,1.54.02.06-2.07,1.46-3.34,2.25-.05.03-.23-.17-.43-.47-.62-.9-1.26-1.29-2.26-1.36-1.46-.1-2.39.66-2.38,1.94,0,.37.05.59.21.9.32.66.91,1.06,2.78,1.87,3.44,1.48,4.91,2.45,5.82,3.84,1.02,1.55,1.25,4.02.56,5.85-.76,2-2.65,3.35-5.31,3.8-.82.14-2.77.12-3.66-.04-1.93-.34-3.76-1.3-4.88-2.54-.44-.49-1.3-1.76-1.25-1.85.02-.03.22-.15.44-.28.21-.12,1.02-.59,1.78-1.03l1.38-.8.29.43c.4.62,1.29,1.46,1.82,1.74,1.53.81,3.63.69,4.67-.24.44-.4.62-.82.62-1.44,0-.56-.07-.8-.36-1.22-.37-.53-1.14-.98-3.3-1.92-2.48-1.07-3.54-1.73-4.52-2.78-.56-.61-1.1-1.58-1.32-2.4-.18-.68-.23-2.38-.08-3.06.51-2.39,2.32-4.06,4.92-4.56.85-.16,2.81-.1,3.64.11Z"/>
  </g>
  <g>
    <rect class="cls-14" x="281.25" width="48" height="48" rx="11.25" ry="11.25"/>
    <path class="cls-15" d="M305.25,27.55c1.93,0,3.5-1.57,3.5-3.5s-1.57-3.5-3.5-3.5-3.5,1.57-3.5,3.5,1.57,3.5,3.5,3.5Z"/>
    <path class="cls-3" d="M305.25,16.94c4.7,0,9.06.67,12.35,1.81,3.96,1.36,6.4,3.43,6.4,5.31s-2.58,4.15-6.84,5.56c-3.22,1.07-7.45,1.62-11.91,1.62s-8.9-.52-12.15-1.63c-4.12-1.41-6.6-3.63-6.6-5.55s2.33-3.91,6.23-5.27c3.3-1.15,7.77-1.84,12.51-1.84h0Z"/>
    <path class="cls-3" d="M299.06,20.52c2.35-4.07,5.11-7.51,7.73-9.8,3.16-2.75,6.17-3.83,7.79-2.89,1.69.98,2.3,4.31,1.4,8.7-.68,3.32-2.32,7.27-4.54,11.13-2.28,3.96-4.9,7.45-7.49,9.71-3.28,2.86-6.44,3.9-8.1,2.94-1.61-.93-2.22-3.97-1.45-8.03.65-3.44,2.29-7.65,4.66-11.76h0Z"/>
    <path class="cls-3" d="M299.06,27.67c-2.35-4.06-3.95-8.18-4.62-11.59-.8-4.11-.24-7.26,1.39-8.2,1.69-.98,4.88.16,8.24,3.13,2.53,2.25,5.14,5.64,7.37,9.49,2.29,3.96,4.01,7.96,4.67,11.34.84,4.27.16,7.53-1.5,8.49-1.61.93-4.55-.05-7.69-2.75-2.65-2.28-5.49-5.8-7.86-9.91Z"/>
  </g>
  <g>
    <rect class="cls-14" x="337.5" width="48" height="48" rx="11.25" ry="11.25"/>
    <path class="cls-13" d="M353.06,20.62c1.12-4.5,3.94-6.75,8.44-6.75,6.75,0,7.59,5.06,10.97,5.91,2.25.56,4.22-.28,5.91-2.53-1.12,4.5-3.94,6.75-8.44,6.75-6.75,0-7.59-5.06-10.97-5.91-2.25-.56-4.22.28-5.91,2.53ZM344.62,30.75c1.12-4.5,3.94-6.75,8.44-6.75,6.75,0,7.59,5.06,10.97,5.91,2.25.56,4.22-.28,5.91-2.53-1.12,4.5-3.94,6.75-8.44,6.75-6.75,0-7.59-5.06-10.97-5.91-2.25-.56-4.22.28-5.91,2.53Z"/>
  </g>
  <g>
    <rect class="cls-14" x="393.75" width="48" height="48" rx="11.25" ry="11.25"/>
    <g class="cls-1">
      <g>
        <path class="cls-15" d="M432.08,24c0-7.91-6.42-14.33-14.33-14.33s-14.33,6.42-14.33,14.33,6.42,14.33,14.33,14.33,14.33-6.42,14.33-14.33Z"/>
        <path class="cls-14" d="M427.89,18.06c0-2.32-1.88-4.2-4.2-4.2s-4.2,1.88-4.2,4.2,1.88,4.2,4.2,4.2,4.2-1.88,4.2-4.2Z"/>
        <path class="cls-15" d="M436.28,9.67c0-2.32-1.88-4.2-4.2-4.2s-4.2,1.88-4.2,4.2,1.88,4.2,4.2,4.2,4.2-1.88,4.2-4.2Z"/>
        <path class="cls-14" d="M409.22,30.11h4.64v1.06h-5.84v-9.41h1.2v8.35Z"/>
        <path class="cls-14" d="M419.41,31.17v-.94c-.63.89-1.26,1.24-2.26,1.24-1.31,0-2.15-.72-2.15-1.85v-5.21h1.07v4.79c0,.81.54,1.33,1.39,1.33,1.12,0,1.85-.9,1.85-2.29v-3.83h1.07v6.76h-.97Z"/>
        <path class="cls-14" d="M428.24,31.35c-.35.09-.51.11-.74.11-.7,0-1.03-.31-1.11-.99-.76.7-1.45.99-2.3.99-1.37,0-2.22-.77-2.22-2,0-.88.4-1.48,1.19-1.81.41-.17.65-.22,2.17-.41.85-.1,1.12-.3,1.12-.75v-.29c0-.65-.54-1.01-1.51-1.01s-1.5.37-1.59,1.2h-1.09c.03-.67.15-1.06.46-1.41.45-.5,1.26-.79,2.24-.79,1.66,0,2.54.65,2.54,1.84v3.98c0,.34.21.53.58.53.06,0,.12,0,.23-.03v.81ZM426.35,27.83c-.36.17-.59.22-1.73.37-1.15.17-1.63.53-1.63,1.24s.49,1.09,1.33,1.09c.63,0,1.16-.21,1.6-.61.32-.3.43-.51.43-.88v-1.21Z"/>
        <path class="cls-4" d="M434.27,15.59c1.33,2.61,2.02,5.49,2.02,8.41,0,10.23-8.3,18.54-18.54,18.54s-18.54-8.3-18.54-18.54,8.3-18.54,18.54-18.54c3.29,0,6.52.88,9.35,2.53"/>
      </g>
    </g>
  </g>
  <g>
    <rect class="cls-14" x="450" width="48" height="48" rx="11.25" ry="11.25"/>
    <path class="cls-8" d="M458.62,13.31l7.99-8.06v37.49l-7.99-7.97V13.31Z"/>
    <path class="cls-13" d="M489.48,13.39l-8.1-8.14.16,37.49,7.99-7.97-.06-21.38Z"/>
    <path class="cls-11" d="M466.61,5.26l20.76,31.68-5.81,5.81-20.78-31.61,5.82-5.88Z"/>
    <path class="cls-16" d="M466.61,19.95v1.25s-6.42-9.46-6.42-9.46l.59-.6,5.83,8.82Z"/>
  </g>
  <g>
    <rect class="cls-14" x="506.25" width="48" height="48" rx="11.25" ry="11.25"/>
    <path class="cls-15" d="M512.57,18.79s-.89-.64.18-1.49l2.48-2.22s.71-.75,1.46-.1l22.9,17.34v8.31s-.01,1.31-1.69,1.16l-25.34-23.01Z"/>
    <path class="cls-6" d="M518.47,24.15l-5.9,5.37s-.61.45,0,1.26l2.74,2.49s.65.7,1.61-.1l6.26-4.75-4.71-4.28Z"/>
    <path class="cls-6" d="M528.84,24.19l10.83-8.27-.07-8.27s-.46-1.81-2-.87l-14.41,13.11,5.66,4.29Z"/>
    <path class="cls-15" d="M537.91,41.81c.63.64,1.39.43,1.39.43l8.44-4.16c1.08-.74.93-1.65.93-1.65V11.61c0-1.09-1.12-1.47-1.12-1.47l-7.31-3.52c-1.6-.99-2.64.18-2.64.18,0,0,1.35-.97,2,.87v32.83c0,.23-.05.45-.14.65-.19.39-.61.75-1.61.6l.07.08Z"/>
  </g>
  <g>
    <rect class="cls-14" x="562.5" width="48" height="48" rx="11.25" ry="11.25"/>
    <g class="cls-17">
      <path class="cls-15" d="M604.54,22.33l-16.37-16.37c-.22-.22-.49-.4-.78-.52-.29-.12-.61-.18-.92-.18s-.63.06-.92.18c-.29.12-.56.3-.78.52l-3.4,3.4,4.31,4.31c1-.35,2.15-.11,2.95.69.38.38.65.86.77,1.39s.09,1.07-.09,1.58l4.16,4.16c1.01-.35,2.17-.12,2.97.68.27.27.48.58.62.93.14.35.22.72.22,1.1,0,.38-.07.75-.22,1.1-.14.35-.36.67-.62.93-.27.27-.58.48-.93.62-.35.14-.72.22-1.1.22-.38,0-.75-.07-1.1-.22-.35-.14-.67-.36-.93-.62-.84-.84-1.05-2.09-.63-3.13l-3.88-3.88v10.2c.28.14.54.32.76.54.27.27.48.58.62.93.14.35.22.72.22,1.1s-.07.75-.22,1.1c-.14.35-.36.67-.62.93s-.58.48-.93.62c-.35.14-.72.22-1.1.22s-.75-.07-1.1-.22c-.35-.14-.67-.36-.93-.62-.27-.27-.48-.58-.62-.93-.14-.35-.22-.72-.22-1.1s.07-.75.22-1.1c.14-.35.36-.67.62-.93.28-.28.59-.49.94-.63v-10.3c-.34-.14-.66-.35-.94-.63-.4-.4-.68-.92-.79-1.48-.11-.56-.05-1.14.17-1.67l-4.25-4.25-11.23,11.21c-.22.22-.4.49-.52.78-.12.29-.18.61-.18.92s.06.63.18.92c.12.29.3.56.52.78l16.37,16.37c.22.22.49.4.78.52.29.12.61.18.92.18s.63-.06.92-.18c.29-.12.56-.3.78-.52l16.3-16.27c.22-.22.4-.49.52-.78.12-.29.18-.61.18-.92s-.06-.63-.18-.92c-.12-.29-.3-.56-.52-.78"/>
    </g>
  </g>
  <g>
    <rect class="cls-14" x="618.75" width="48" height="48" rx="11.25" ry="11.25"/>
    <path class="cls-15" d="M642.75,5.62c-10.35,0-18.75,8.39-18.75,18.75,0,8.28,5.37,15.31,12.82,17.79.94.17,1.28-.41,1.28-.9,0-.45-.02-1.92-.03-3.49-5.22,1.13-6.32-2.21-6.32-2.21-.85-2.17-2.08-2.74-2.08-2.74-1.7-1.16.13-1.14.13-1.14,1.88.13,2.87,1.93,2.87,1.93,1.67,2.87,4.39,2.04,5.46,1.56.17-1.21.65-2.04,1.19-2.51-4.16-.47-8.54-2.08-8.54-9.27,0-2.05.73-3.72,1.93-5.03-.19-.47-.84-2.38.18-4.96,0,0,1.57-.5,5.16,1.92,1.5-.42,3.1-.62,4.69-.63,1.59,0,3.2.22,4.7.63,3.58-2.43,5.15-1.92,5.15-1.92,1.02,2.58.38,4.49.18,4.96,1.2,1.31,1.93,2.99,1.93,5.03,0,7.2-4.39,8.79-8.56,9.25.67.58,1.27,1.72,1.27,3.47,0,2.51-.02,4.53-.02,5.15,0,.5.34,1.08,1.29.9,7.45-2.48,12.81-9.51,12.81-17.79,0-10.36-8.39-18.75-18.75-18.75ZM631.02,32.33c-.04.09-.19.12-.32.06-.14-.06-.21-.19-.17-.28.04-.1.19-.12.32-.06.14.06.21.19.17.28ZM631.94,33.16c-.09.08-.26.04-.38-.09-.12-.13-.15-.31-.05-.39.09-.08.26-.04.38.09.12.13.15.31.05.39ZM632.58,34.21c-.11.08-.3,0-.42-.16-.11-.17-.11-.37,0-.45.12-.08.3,0,.42.16.11.17.11.37,0,.45ZM633.65,35.43c-.1.11-.32.08-.48-.07-.16-.15-.21-.37-.11-.48.1-.11.32-.08.49.07.16.15.21.37.1.48ZM635.03,35.84c-.05.15-.26.21-.47.15-.21-.06-.35-.24-.31-.38.04-.15.26-.22.47-.15.21.06.35.23.31.38ZM636.6,36.02c0,.15-.17.28-.4.29-.22,0-.41-.12-.41-.27,0-.16.18-.28.4-.29.22,0,.41.12.41.27ZM638.15,35.96c.03.15-.13.31-.35.35-.22.04-.42-.05-.45-.2-.03-.15.13-.31.35-.35.22-.04.42.05.45.21Z"/>
  </g>
  <g>
    <rect class="cls-14" x="675" width="48" height="48" rx="11.25" ry="11.25"/>
    <g class="cls-18">
      <g>
        <path class="cls-9" d="M692.69,42.75c3.45,0,6.25-2.8,6.25-6.25v-6.25h-6.25c-3.45,0-6.25,2.8-6.25,6.25s2.8,6.25,6.25,6.25Z"/>
        <path class="cls-5" d="M686.44,24c0-3.45,2.8-6.25,6.25-6.25h6.25v12.5h-6.25c-3.45,0-6.25-2.8-6.25-6.25Z"/>
        <path class="cls-10" d="M686.44,11.5c0-3.45,2.8-6.25,6.25-6.25h6.25v12.5h-6.25c-3.45,0-6.25-2.8-6.25-6.25Z"/>
        <path class="cls-7" d="M698.94,5.25h6.25c3.45,0,6.25,2.8,6.25,6.25s-2.8,6.25-6.25,6.25h-6.25V5.25Z"/>
        <path class="cls-12" d="M711.44,24c0,3.45-2.8,6.25-6.25,6.25s-6.25-2.8-6.25-6.25,2.8-6.25,6.25-6.25,6.25,2.8,6.25,6.25Z"/>
      </g>
    </g>
  </g>
  <g>
    <rect class="cls-14" x="731.25" width="48" height="48" rx="11.25" ry="11.25"/>
    <path class="cls-15" d="M742.05,33.38V12.8c0-.14.06-.22.2-.22.34,0,.66,0,1.12-.02.48-.02.98-.02,1.52-.04.54-.02,1.12-.02,1.74-.04.62-.02,1.22-.02,1.82-.02,1.64,0,3,.2,4.12.62,1,.34,1.92.9,2.68,1.64.64.64,1.14,1.42,1.46,2.28.3.84.46,1.7.46,2.6,0,1.72-.4,3.14-1.2,4.26-.8,1.12-1.92,1.96-3.22,2.44-1.36.5-2.86.68-4.5.68-.48,0-.8,0-1-.02-.2-.02-.48-.02-.86-.02v6.42c.02.14-.08.26-.22.28h-3.88c-.16,0-.24-.08-.24-.26ZM746.41,16.44v6.72c.28.02.54.04.78.04h1.06c.78,0,1.56-.12,2.3-.36.64-.18,1.2-.56,1.64-1.06.42-.5.62-1.18.62-2.06.02-.62-.14-1.24-.46-1.78-.34-.52-.82-.92-1.4-1.14-.74-.3-1.54-.42-2.36-.4-.52,0-.98,0-1.36.02-.4-.02-.68,0-.82.02Z"/>
    <path class="cls-15" d="M769.65,21.94c-.6-.32-1.24-.54-1.92-.68-.74-.16-1.48-.26-2.24-.26-.4-.02-.82.04-1.2.14-.26.06-.48.2-.62.4-.1.16-.16.36-.16.54s.08.36.2.52c.18.22.42.4.68.54.46.24.94.46,1.42.66,1.08.36,2.12.86,3.08,1.46.66.42,1.2.98,1.58,1.66.32.64.48,1.34.46,2.06.02.94-.26,1.88-.78,2.66-.56.8-1.34,1.42-2.24,1.78-.98.42-2.18.64-3.62.64-.92,0-1.82-.08-2.72-.26-.7-.12-1.4-.34-2.04-.64-.14-.08-.24-.22-.22-.38v-3.48c0-.06.02-.14.08-.18.06-.04.12-.02.18.02.78.46,1.6.78,2.48.98.76.2,1.56.3,2.36.3s1.3-.1,1.66-.28c.32-.14.54-.48.54-.84,0-.28-.16-.54-.48-.8-.32-.26-.98-.56-1.96-.94-1.02-.36-1.96-.84-2.84-1.44-.62-.44-1.14-1.02-1.52-1.7-.32-.64-.48-1.34-.46-2.04,0-.86.24-1.68.68-2.42.5-.8,1.24-1.44,2.1-1.84.94-.48,2.12-.7,3.54-.7.82,0,1.66.06,2.48.18.6.08,1.18.24,1.72.46.08.02.16.1.2.18.02.08.04.16.04.24v3.26c0,.08-.04.16-.1.2-.18.04-.28.04-.36,0Z"/>
  </g>
  <g>
    <rect class="cls-14" x="787.5" width="48" height="48" rx="11.25" ry="11.25"/>
    <path class="cls-15" d="M810.7,28.56h-7.44l-1.52,4.7c-.04.18-.2.3-.38.28h-3.76c-.22,0-.28-.12-.22-.36l6.44-18.54c.06-.2.12-.42.2-.66.08-.42.12-.86.12-1.3-.02-.1.06-.2.16-.22h5.18c.16,0,.24.06.26.16l7.3,20.6c.06.22,0,.32-.2.32h-4.18c-.14.02-.28-.08-.32-.22l-1.64-4.76h0ZM804.42,24.5h5.08c-.12-.42-.28-.92-.46-1.44-.18-.54-.36-1.12-.54-1.72-.2-.62-.38-1.22-.58-1.84-.2-.62-.38-1.2-.54-1.78-.16-.56-.3-1.08-.44-1.56h-.04c-.18.86-.4,1.72-.68,2.58-.3.96-.6,1.96-.92,2.96-.28,1.02-.58,1.96-.88,2.8h0Z"/>
    <path class="cls-15" d="M821.5,15.96c-.66.02-1.3-.24-1.78-.7-.46-.5-.7-1.16-.68-1.84-.02-.68.24-1.32.72-1.78.48-.46,1.12-.7,1.78-.7.78,0,1.38.24,1.82.7.44.48.68,1.12.66,1.78.02.68-.22,1.34-.7,1.84-.46.48-1.14.74-1.82.7ZM819.26,33.32v-15.4c0-.2.08-.28.26-.28h3.96c.18,0,.26.1.26.28v15.4c0,.22-.08.32-.26.32h-3.92c-.2,0-.3-.12-.3-.32h0Z"/>
  </g>
</svg>