<?xml version="1.0" encoding="UTF-8"?>
<svg id="Layer_2" data-name="Layer 2" xmlns="http://www.w3.org/2000/svg" xmlns:xlink="http://www.w3.org/1999/xlink" viewBox="0 0 835.5 48">
  <defs>
    <style>
      .cls-1 {
        opacity: .65;
      }

      .cls-1, .cls-2, .cls-3, .cls-4, .cls-5, .cls-6, .cls-7, .cls-8, .cls-9, .cls-10, .cls-11, .cls-12, .cls-13 {
        stroke-width: 0px;
      }

      .cls-1, .cls-4, .cls-5, .cls-6, .cls-7, .cls-8, .cls-9, .cls-12 {
        fill: #fff;
      }

      .cls-1, .cls-7, .cls-9, .cls-13 {
        fill-rule: evenodd;
      }

      .cls-14 {
        clip-path: url(#clippath);
      }

      .cls-2, .cls-15, .cls-16 {
        fill: none;
      }

      .cls-15 {
        stroke: #fff;
        stroke-miterlimit: 10;
        stroke-width: 1.67px;
      }

      .cls-3 {
        fill: url(#linear-gradient);
      }

      .cls-4 {
        opacity: .81;
      }

      .cls-5 {
        opacity: .77;
      }

      .cls-6 {
        opacity: .83;
      }

      .cls-17 {
        clip-path: url(#clippath-1);
      }

      .cls-18 {
        clip-path: url(#clippath-2);
      }

      .cls-7 {
        opacity: .85;
      }

      .cls-16 {
        stroke: gray;
        stroke-dasharray: 0 0 1.62 1.62;
        stroke-miterlimit: 1.88;
        stroke-width: .43px;
      }

      .cls-8 {
        opacity: .89;
      }

      .cls-11 {
        fill: #161b22;
      }
    </style>
    <linearGradient id="linear-gradient" x1="2390.95" y1="-2229.17" x2="2490.06" y2="-2327.3" gradientTransform="translate(-439.56 -409.06) scale(.19 -.19)" gradientUnits="userSpaceOnUse">
      <stop offset="0" stop-color="#fff"/>
      <stop offset="1" stop-color="#fff"/>
    </linearGradient>
    <clipPath id="clippath">
      <rect class="cls-2" x="342.75" y="5.25" width="37.5" height="37.5"/>
    </clipPath>
    <clipPath id="clippath-1">
      <rect class="cls-2" x="567.75" y="5.25" width="37.5" height="37.5"/>
    </clipPath>
    <clipPath id="clippath-2">
      <rect class="cls-2" x="686.44" y="5.25" width="25.01" height="37.5"/>
    </clipPath>
  </defs>
  <g id="Layer_1-2" data-name="Layer 1">
    <g>
      <rect class="cls-10" width="48" height="48" rx="11.25" ry="11.25"/>
      <path class="cls-3" d="M23.86,5.44c-9.52,0-8.93,4.13-8.93,4.13v4.28h9.1v1.28h-12.69s-6.09-.69-6.09,8.91,5.32,9.27,5.32,9.27h3.17v-4.46s-.17-5.32,5.23-5.32h9.01s5.06.08,5.06-4.89v-8.22s.77-4.98-9.18-4.98ZM18.86,8.31c.9,0,1.63.73,1.63,1.63s-.73,1.63-1.63,1.63-1.63-.73-1.63-1.63.73-1.63,1.63-1.63Z"/>
      <path class="cls-12" d="M24.14,42.74c9.52,0,8.93-4.13,8.93-4.13v-4.28h-9.1v-1.28h12.69s6.09.69,6.09-8.91-5.32-9.26-5.32-9.26h-3.17v4.46s.17,5.32-5.23,5.32h-9.01s-5.06-.08-5.06,4.89v8.22s-.77,4.98,9.18,4.98ZM29.14,39.87c-.9,0-1.63-.73-1.63-1.63s.73-1.63,1.63-1.63,1.63.73,1.63,1.63-.73,1.63-1.63,1.63Z"/>
    </g>
    <g>
      <rect class="cls-10" x="56.25" width="48" height="48" rx="11.25" ry="11.25"/>
      <path class="cls-12" d="M94.25,29.63c.05-.18.09-.36.14-.54,1.99-7.92-2.85-17.33-11.08-22.26,3.62,4.89,5.2,10.81,3.8,15.97-.14.45-.27.9-.45,1.36-.18-.14-.41-.27-.72-.41,0,0-8.19-5.07-17.06-13.98-.23-.23,4.75,7.1,10.36,13.03-2.67-1.49-10.04-6.88-14.75-11.13.59.95,1.27,1.9,1.99,2.76,3.89,4.98,9,11.08,15.11,15.79-4.3,2.62-10.36,2.85-16.38,0-1.49-.68-2.9-1.54-4.21-2.49,2.53,4.07,6.47,7.6,11.26,9.68,5.7,2.44,11.4,2.31,15.61.05,0,0,.05,0,.05-.05.18-.09.36-.23.54-.32,2.04-1.04,6.02-2.08,8.19,2.08.63.95,1.76-4.48-2.4-9.55Z"/>
    </g>
    <g>
      <rect class="cls-10" x="112.5" width="48" height="48" rx="11.25" ry="11.25"/>
      <path class="cls-12" d="M123.11,24.16l-.02,1.97h6.25v17.75h4.42v-17.75h6.25v-1.93c0-1.07-.02-1.96-.05-1.98-.02-.03-3.82-.05-8.43-.04l-8.39.02-.02,1.96Z"/>
      <path class="cls-12" d="M151.23,22.15c1.22.3,2.15.85,3,1.73.44.47,1.1,1.33,1.15,1.54.02.06-2.07,1.46-3.34,2.25-.05.03-.23-.17-.43-.47-.62-.9-1.26-1.29-2.26-1.36-1.46-.1-2.39.66-2.38,1.94,0,.37.05.59.21.9.32.66.91,1.06,2.78,1.87,3.44,1.48,4.91,2.45,5.82,3.84,1.02,1.55,1.25,4.02.56,5.85-.76,2-2.65,3.35-5.31,3.8-.82.14-2.77.12-3.66-.04-1.93-.34-3.76-1.3-4.88-2.54-.44-.49-1.3-1.76-1.25-1.85.02-.03.22-.15.44-.28.21-.12,1.02-.59,1.78-1.03l1.38-.8.29.43c.4.62,1.29,1.46,1.82,1.74,1.53.81,3.63.69,4.67-.24.44-.4.62-.82.62-1.44,0-.56-.07-.8-.36-1.22-.37-.53-1.14-.98-3.3-1.92-2.48-1.07-3.54-1.73-4.52-2.78-.56-.61-1.1-1.58-1.32-2.4-.18-.68-.23-2.38-.08-3.06.51-2.39,2.32-4.06,4.92-4.56.85-.16,2.81-.1,3.64.11Z"/>
    </g>
    <g>
      <rect class="cls-10" x="168.75" width="48" height="48" rx="11.25" ry="11.25"/>
      <path class="cls-12" d="M192.75,27.55c1.93,0,3.5-1.57,3.5-3.5s-1.57-3.5-3.5-3.5-3.5,1.57-3.5,3.5,1.57,3.5,3.5,3.5Z"/>
      <path class="cls-15" d="M192.75,16.94c4.7,0,9.06.67,12.35,1.81,3.96,1.36,6.4,3.43,6.4,5.31s-2.58,4.15-6.84,5.56c-3.22,1.07-7.45,1.62-11.91,1.62s-8.9-.52-12.15-1.63c-4.12-1.41-6.6-3.63-6.6-5.55s2.33-3.91,6.23-5.27c3.3-1.15,7.77-1.84,12.51-1.84h0Z"/>
      <path class="cls-15" d="M186.56,20.52c2.35-4.07,5.11-7.51,7.73-9.8,3.16-2.75,6.17-3.83,7.79-2.89,1.69.98,2.3,4.31,1.4,8.7-.68,3.32-2.32,7.27-4.54,11.13-2.28,3.96-4.9,7.45-7.49,9.71-3.28,2.86-6.44,3.9-8.1,2.94-1.61-.93-2.22-3.97-1.45-8.03.65-3.44,2.29-7.65,4.66-11.76h0Z"/>
      <path class="cls-15" d="M186.56,27.67c-2.35-4.06-3.95-8.18-4.62-11.59-.8-4.11-.24-7.26,1.39-8.2,1.69-.98,4.88.16,8.24,3.13,2.53,2.25,5.14,5.64,7.37,9.49,2.29,3.96,4.01,7.96,4.67,11.34.84,4.27.16,7.53-1.5,8.49-1.61.93-4.55-.05-7.69-2.75-2.65-2.28-5.49-5.8-7.86-9.91Z"/>
    </g>
    <g>
      <rect class="cls-10" x="225" width="48" height="48" rx="11.25" ry="11.25"/>
      <path class="cls-9" d="M240.56,20.62c1.12-4.5,3.94-6.75,8.44-6.75,6.75,0,7.59,5.06,10.97,5.91,2.25.56,4.22-.28,5.91-2.53-1.12,4.5-3.94,6.75-8.44,6.75-6.75,0-7.59-5.06-10.97-5.91-2.25-.56-4.22.28-5.91,2.53ZM232.12,30.75c1.12-4.5,3.94-6.75,8.44-6.75,6.75,0,7.59,5.06,10.97,5.91,2.25.56,4.22-.28,5.91-2.53-1.12,4.5-3.94,6.75-8.44,6.75-6.75,0-7.59-5.06-10.97-5.91-2.25-.56-4.22.28-5.91,2.53Z"/>
    </g>
    <g>
      <rect class="cls-10" x="281.25" width="48" height="48" rx="11.25" ry="11.25"/>
      <path class="cls-12" d="M288.84,21.23c-.08,0-.09-.04-.06-.09l.39-.51c.04-.06.13-.09.21-.09h6.69c.08,0,.09.06.06.11l-.32.49c-.04.06-.13.11-.19.11l-6.79-.02Z"/>
      <path class="cls-12" d="M286.01,22.96c-.07,0-.09-.04-.06-.09l.39-.51c.04-.06.13-.09.21-.09h8.55c.08,0,.11.06.09.11l-.15.45c-.02.08-.09.11-.17.11l-8.87.02Z"/>
      <path class="cls-12" d="M290.55,24.68c-.07,0-.09-.06-.06-.11l.26-.47c.04-.06.11-.11.19-.11h3.75c.08,0,.11.06.11.13l-.04.45c0,.08-.08.13-.13.13l-4.09-.02Z"/>
      <path class="cls-12" d="M310.01,20.89c-1.18.3-1.99.53-3.15.83-.28.08-.3.09-.54-.19-.28-.32-.49-.53-.88-.71-1.18-.58-2.33-.41-3.39.28-1.28.83-1.93,2.04-1.91,3.56.02,1.5,1.05,2.74,2.53,2.94,1.28.17,2.34-.28,3.19-1.24.17-.21.32-.43.51-.69h-3.62c-.39,0-.49-.24-.36-.56.24-.58.69-1.56.96-2.04.06-.11.19-.3.47-.3h6.82c-.04.51-.04,1.01-.11,1.52-.21,1.35-.71,2.59-1.54,3.68-1.35,1.78-3.11,2.89-5.34,3.19-1.84.24-3.54-.11-5.04-1.24-1.39-1.05-2.17-2.44-2.38-4.16-.24-2.04.36-3.88,1.59-5.49,1.33-1.74,3.09-2.85,5.25-3.24,1.76-.32,3.45-.11,4.97.92.99.66,1.71,1.56,2.17,2.64.11.17.04.26-.19.32Z"/>
      <path class="cls-12" d="M316.22,31.26c-1.71-.04-3.26-.52-4.57-1.65-1.11-.96-1.8-2.18-2.03-3.62-.34-2.12.24-3.99,1.52-5.66,1.37-1.8,3.02-2.74,5.25-3.13,1.91-.34,3.71-.15,5.34.96,1.48,1.01,2.4,2.38,2.64,4.18.32,2.53-.41,4.59-2.16,6.36-1.24,1.26-2.76,2.04-4.5,2.4-.51.09-1.01.11-1.5.17ZM320.68,23.69c-.02-.24-.02-.43-.06-.62-.34-1.86-2.04-2.91-3.82-2.49-1.74.39-2.87,1.5-3.28,3.26-.34,1.46.38,2.94,1.72,3.54,1.03.45,2.06.39,3.06-.11,1.48-.77,2.29-1.97,2.38-3.58Z"/>
    </g>
    <g>
      <rect class="cls-10" x="337.5" width="48" height="48" rx="11.25" ry="11.25"/>
      <g class="cls-14">
        <g>
          <path class="cls-12" d="M375.83,24c0-7.91-6.42-14.33-14.33-14.33s-14.33,6.42-14.33,14.33,6.42,14.33,14.33,14.33,14.33-6.42,14.33-14.33Z"/>
          <path class="cls-11" d="M371.64,18.06c0-2.32-1.88-4.2-4.2-4.2s-4.2,1.88-4.2,4.2,1.88,4.2,4.2,4.2,4.2-1.88,4.2-4.2Z"/>
          <path class="cls-12" d="M380.03,9.67c0-2.32-1.88-4.2-4.2-4.2s-4.2,1.88-4.2,4.2,1.88,4.2,4.2,4.2,4.2-1.88,4.2-4.2Z"/>
          <path class="cls-11" d="M352.97,30.11h4.64v1.06h-5.84v-9.41h1.2v8.35Z"/>
          <path class="cls-11" d="M363.16,31.17v-.94c-.63.89-1.26,1.24-2.26,1.24-1.31,0-2.15-.72-2.15-1.85v-5.21h1.07v4.79c0,.81.54,1.33,1.39,1.33,1.12,0,1.85-.9,1.85-2.29v-3.83h1.07v6.76h-.97Z"/>
          <path class="cls-11" d="M371.99,31.35c-.35.09-.51.11-.74.11-.7,0-1.03-.31-1.11-.99-.76.7-1.45.99-2.3.99-1.37,0-2.22-.77-2.22-2,0-.88.4-1.48,1.19-1.81.41-.17.65-.22,2.17-.41.85-.1,1.12-.3,1.12-.75v-.29c0-.65-.54-1.01-1.51-1.01s-1.5.37-1.59,1.2h-1.09c.03-.67.15-1.06.46-1.41.45-.5,1.26-.79,2.24-.79,1.66,0,2.54.65,2.54,1.84v3.98c0,.34.21.53.58.53.06,0,.12,0,.23-.03v.81ZM370.1,27.83c-.36.17-.59.22-1.73.37-1.15.17-1.63.53-1.63,1.24s.49,1.09,1.33,1.09c.63,0,1.16-.21,1.6-.61.32-.3.43-.51.43-.88v-1.21Z"/>
          <path class="cls-16" d="M378.02,15.59c1.33,2.61,2.02,5.49,2.02,8.41,0,10.23-8.3,18.54-18.54,18.54s-18.54-8.3-18.54-18.54,8.3-18.54,18.54-18.54c3.29,0,6.52.88,9.35,2.53"/>
        </g>
      </g>
    </g>
    <g>
      <rect class="cls-10" x="393.75" width="48" height="48" rx="11.25" ry="11.25"/>
      <path class="cls-12" d="M436.23,23.54l-1.57-.97c-.01-.15-.03-.31-.04-.46l1.35-1.26c.14-.13.2-.32.16-.5-.04-.18-.17-.34-.34-.4l-1.73-.64c-.04-.15-.09-.3-.14-.45l1.08-1.5c.11-.15.13-.35.06-.52-.07-.17-.23-.3-.41-.33l-1.82-.3c-.07-.14-.14-.27-.22-.41l.77-1.68c.08-.17.06-.37-.04-.53-.1-.16-.28-.25-.47-.24l-1.85.06c-.1-.12-.19-.24-.29-.35l.43-1.8c.04-.18-.01-.38-.14-.51-.13-.13-.32-.19-.51-.14l-1.8.43c-.12-.1-.24-.2-.36-.29l.06-1.85c0-.19-.08-.37-.24-.47-.16-.1-.35-.12-.53-.04l-1.68.77c-.14-.07-.27-.15-.41-.22l-.3-1.82c-.03-.18-.15-.34-.33-.41-.17-.07-.37-.05-.52.06l-1.5,1.08c-.15-.05-.3-.09-.44-.14l-.65-1.73c-.07-.18-.22-.31-.4-.34-.18-.04-.37.03-.5.16l-1.26,1.35c-.15-.02-.31-.03-.46-.04l-.97-1.58c-.1-.16-.27-.26-.46-.26s-.36.1-.46.26l-.97,1.58c-.15.01-.31.03-.46.04l-1.26-1.35c-.13-.14-.32-.2-.5-.16-.18.04-.34.17-.4.34l-.64,1.73c-.15.04-.3.09-.44.14l-1.5-1.08c-.15-.11-.35-.13-.52-.06-.17.07-.3.23-.33.41l-.3,1.82c-.14.07-.27.14-.41.22l-1.68-.77c-.17-.08-.37-.06-.53.04-.16.1-.25.28-.24.47l.06,1.85c-.12.1-.24.19-.36.29l-1.8-.43c-.18-.04-.38.01-.51.14-.13.13-.19.32-.14.51l.42,1.8c-.1.12-.2.24-.29.35l-1.85-.06c-.19,0-.37.08-.47.24-.1.16-.12.35-.04.53l.77,1.68c-.07.14-.15.27-.22.41l-1.82.3c-.19.03-.34.15-.41.33-.07.17-.05.37.06.52l1.08,1.5c-.05.15-.09.3-.14.45l-1.73.64c-.18.07-.3.22-.34.4-.04.18.02.37.16.5l1.35,1.26c-.02.15-.03.31-.04.46l-1.57.97c-.16.1-.26.27-.26.46s.1.36.26.46l1.57.97c.01.15.03.31.04.46l-1.35,1.26c-.14.13-.2.32-.16.5.04.18.17.34.34.4l1.73.65c.04.15.09.3.14.45l-1.08,1.5c-.11.15-.13.35-.06.52.07.17.23.3.42.33l1.82.3c.07.14.14.27.22.41l-.77,1.68c-.08.17-.06.37.04.53.1.16.28.25.47.24l1.85-.06c.1.12.19.24.29.36l-.42,1.8c-.04.18.01.37.14.51.13.13.32.19.51.14l1.8-.42c.12.1.24.2.36.29l-.06,1.85c0,.19.08.37.24.47.16.1.35.12.53.04l1.68-.77c.14.08.27.15.41.22l.3,1.82c.03.19.15.34.33.42.17.07.37.05.52-.06l1.5-1.08c.15.05.3.09.45.14l.65,1.73c.07.18.22.31.4.34.18.04.37-.02.5-.16l1.26-1.35c.15.02.31.03.46.05l.97,1.57c.1.16.27.26.46.26s.36-.1.46-.26l.97-1.57c.15-.01.31-.03.46-.05l1.26,1.35c.13.14.32.2.5.16.18-.04.34-.17.4-.34l.65-1.73c.15-.04.3-.09.45-.14l1.5,1.08c.15.11.35.13.52.06.17-.07.3-.23.33-.42l.3-1.82c.14-.07.27-.15.41-.22l1.68.77c.17.08.37.06.53-.04.16-.1.25-.28.24-.47l-.06-1.85c.12-.1.24-.19.36-.29l1.8.42c.18.04.38-.01.51-.14.13-.13.19-.32.14-.51l-.42-1.8c.1-.12.2-.23.29-.36l1.85.06c.19,0,.37-.08.47-.24.1-.16.12-.36.04-.53l-.77-1.68c.07-.14.15-.27.22-.41l1.82-.3c.19-.03.34-.15.41-.33.07-.17.05-.37-.06-.52l-1.08-1.5c.05-.15.09-.3.14-.45l1.73-.65c.18-.07.31-.22.34-.4.04-.18-.02-.37-.16-.5l-1.35-1.26c.02-.15.03-.31.04-.46l1.57-.97c.16-.1.26-.27.26-.46s-.1-.36-.26-.46h-.01ZM425.7,36.62c-.6-.13-.98-.72-.85-1.33.13-.6.72-.99,1.32-.86.6.13.99.72.86,1.33-.13.6-.72.99-1.32.86h0ZM425.16,33c-.55-.12-1.09.23-1.2.78l-.56,2.61c-1.72.78-3.66,1.22-5.66,1.22s-4.01-.46-5.77-1.27l-.56-2.61c-.12-.55-.66-.9-1.2-.78l-2.3.49c-.43-.44-.82-.91-1.19-1.4h11.22c.13,0,.21-.02.21-.14v-3.98c0-.12-.08-.14-.21-.14h-3.28v-2.51h3.54c.32,0,1.73.09,2.18,1.89.14.55.45,2.35.66,2.93.21.65,1.07,1.94,1.98,1.94h5.59c.06,0,.13,0,.2-.02-.39.53-.81,1.02-1.27,1.49l-2.36-.51h-.02ZM409.65,36.57c-.6.13-1.19-.25-1.32-.86-.13-.6.25-1.2.86-1.33.6-.13,1.19.25,1.32.86.13.6-.25,1.2-.86,1.33ZM405.38,19.33c.25.56,0,1.22-.57,1.47-.56.25-1.22,0-1.47-.57-.25-.56,0-1.22.57-1.47.56-.25,1.22,0,1.47.57ZM404.07,22.43l2.4-1.07c.51-.23.75-.83.52-1.34l-.49-1.12h1.94v8.74h-3.91c-.34-1.2-.52-2.46-.52-3.76,0-.5.03-.99.08-1.47v.02ZM414.61,21.58v-2.58h4.62c.24,0,1.69.28,1.69,1.36,0,.9-1.11,1.22-2.02,1.22h-4.3.01ZM431.42,23.9c0,.34-.01.68-.04,1.02h-1.41c-.14,0-.2.09-.2.23v.65c0,1.52-.86,1.85-1.61,1.94-.72.08-1.51-.3-1.61-.74-.42-2.38-1.13-2.88-2.24-3.76,1.38-.87,2.81-2.17,2.81-3.91,0-1.87-1.28-3.04-2.15-3.62-1.23-.81-2.58-.97-2.95-.97h-14.55c1.97-2.2,4.66-3.76,7.67-4.34l1.72,1.8c.39.4,1.03.42,1.44.03l1.92-1.83c4.01.75,7.42,3.25,9.39,6.7l-1.32,2.97c-.23.51,0,1.11.52,1.34l2.53,1.12c.04.45.07.9.07,1.36h0ZM416.87,8.89c.44-.43,1.15-.41,1.57.04.42.44.41,1.15-.04,1.58-.44.43-1.15.41-1.57-.04-.42-.44-.41-1.15.04-1.58h0ZM429.91,19.38c.25-.56.91-.82,1.47-.57.56.25.82.91.57,1.47-.25.56-.91.82-1.47.57-.56-.25-.82-.91-.57-1.47Z"/>
    </g>
    <g>
      <rect class="cls-10" x="450" width="48" height="48" rx="11.25" ry="11.25"/>
      <path class="cls-1" d="M458.62,13.31l7.99-8.06v37.49l-7.99-7.97V13.31Z"/>
      <path class="cls-9" d="M489.48,13.39l-8.1-8.14.16,37.49,7.99-7.97-.06-21.38Z"/>
      <path class="cls-7" d="M466.61,5.26l20.76,31.68-5.81,5.81-20.78-31.61,5.82-5.88Z"/>
      <path class="cls-13" d="M466.61,19.95v1.25s-6.42-9.46-6.42-9.46l.59-.6,5.83,8.82Z"/>
    </g>
    <g>
      <rect class="cls-10" x="506.25" width="48" height="48" rx="11.25" ry="11.25"/>
      <path class="cls-12" d="M512.57,18.79s-.89-.64.18-1.49l2.48-2.22s.71-.75,1.46-.1l22.9,17.34v8.31s-.01,1.31-1.69,1.16l-25.34-23.01Z"/>
      <path class="cls-5" d="M518.47,24.15l-5.9,5.37s-.61.45,0,1.26l2.74,2.49s.65.7,1.61-.1l6.26-4.75-4.71-4.28Z"/>
      <path class="cls-5" d="M528.84,24.19l10.83-8.27-.07-8.27s-.46-1.81-2-.87l-14.41,13.11,5.66,4.29Z"/>
      <path class="cls-12" d="M537.91,41.81c.63.64,1.39.43,1.39.43l8.44-4.16c1.08-.74.93-1.65.93-1.65V11.61c0-1.09-1.12-1.47-1.12-1.47l-7.31-3.52c-1.6-.99-2.64.18-2.64.18,0,0,1.35-.97,2,.87v32.83c0,.23-.05.45-.14.65-.19.39-.61.75-1.61.6l.07.08Z"/>
    </g>
    <g>
      <rect class="cls-10" x="562.5" width="48" height="48" rx="11.25" ry="11.25"/>
      <g class="cls-17">
        <path class="cls-12" d="M604.54,22.33l-16.37-16.37c-.22-.22-.49-.4-.78-.52-.29-.12-.61-.18-.92-.18s-.63.06-.92.18c-.29.12-.56.3-.78.52l-3.4,3.4,4.31,4.31c1-.35,2.15-.11,2.95.69.38.38.65.86.77,1.39s.09,1.07-.09,1.58l4.16,4.16c1.01-.35,2.17-.12,2.97.68.27.27.48.58.62.93.14.35.22.72.22,1.1,0,.38-.07.75-.22,1.1-.14.35-.36.67-.62.93-.27.27-.58.48-.93.62-.35.14-.72.22-1.1.22-.38,0-.75-.07-1.1-.22-.35-.14-.67-.36-.93-.62-.84-.84-1.05-2.09-.63-3.13l-3.88-3.88v10.2c.28.14.54.32.76.54.27.27.48.58.62.93.14.35.22.72.22,1.1s-.07.75-.22,1.1c-.14.35-.36.67-.62.93s-.58.48-.93.62c-.35.14-.72.22-1.1.22s-.75-.07-1.1-.22c-.35-.14-.67-.36-.93-.62-.27-.27-.48-.58-.62-.93-.14-.35-.22-.72-.22-1.1s.07-.75.22-1.1c.14-.35.36-.67.62-.93.28-.28.59-.49.94-.63v-10.3c-.34-.14-.66-.35-.94-.63-.4-.4-.68-.92-.79-1.48-.11-.56-.05-1.14.17-1.67l-4.25-4.25-11.23,11.21c-.22.22-.4.49-.52.78-.12.29-.18.61-.18.92s.06.63.18.92c.12.29.3.56.52.78l16.37,16.37c.22.22.49.4.78.52.29.12.61.18.92.18s.63-.06.92-.18c.29-.12.56-.3.78-.52l16.3-16.27c.22-.22.4-.49.52-.78.12-.29.18-.61.18-.92s-.06-.63-.18-.92c-.12-.29-.3-.56-.52-.78"/>
      </g>
    </g>
    <g>
      <rect class="cls-10" x="618.75" width="48" height="48" rx="11.25" ry="11.25"/>
      <path class="cls-12" d="M642.75,5.62c-10.35,0-18.75,8.39-18.75,18.75,0,8.28,5.37,15.31,12.82,17.79.94.17,1.28-.41,1.28-.9,0-.45-.02-1.92-.03-3.49-5.22,1.13-6.32-2.21-6.32-2.21-.85-2.17-2.08-2.74-2.08-2.74-1.7-1.16.13-1.14.13-1.14,1.88.13,2.87,1.93,2.87,1.93,1.67,2.87,4.39,2.04,5.46,1.56.17-1.21.65-2.04,1.19-2.51-4.16-.47-8.54-2.08-8.54-9.27,0-2.05.73-3.72,1.93-5.03-.19-.47-.84-2.38.18-4.96,0,0,1.57-.5,5.16,1.92,1.5-.42,3.1-.62,4.69-.63,1.59,0,3.2.22,4.7.63,3.58-2.43,5.15-1.92,5.15-1.92,1.02,2.58.38,4.49.18,4.96,1.2,1.31,1.93,2.99,1.93,5.03,0,7.2-4.39,8.79-8.56,9.25.67.58,1.27,1.72,1.27,3.47,0,2.51-.02,4.53-.02,5.15,0,.5.34,1.08,1.29.9,7.45-2.48,12.81-9.51,12.81-17.79,0-10.36-8.39-18.75-18.75-18.75ZM631.02,32.33c-.04.09-.19.12-.32.06-.14-.06-.21-.19-.17-.28.04-.1.19-.12.32-.06.14.06.21.19.17.28ZM631.94,33.16c-.09.08-.26.04-.38-.09-.12-.13-.15-.31-.05-.39.09-.08.26-.04.38.09.12.13.15.31.05.39ZM632.58,34.21c-.11.08-.3,0-.42-.16-.11-.17-.11-.37,0-.45.12-.08.3,0,.42.16.11.17.11.37,0,.45ZM633.65,35.43c-.1.11-.32.08-.48-.07-.16-.15-.21-.37-.11-.48.1-.11.32-.08.49.07.16.15.21.37.1.48ZM635.03,35.84c-.05.15-.26.21-.47.15-.21-.06-.35-.24-.31-.38.04-.15.26-.22.47-.15.21.06.35.23.31.38ZM636.6,36.02c0,.15-.17.28-.4.29-.22,0-.41-.12-.41-.27,0-.16.18-.28.4-.29.22,0,.41.12.41.27ZM638.15,35.96c.03.15-.13.31-.35.35-.22.04-.42-.05-.45-.2-.03-.15.13-.31.35-.35.22-.04.42.05.45.21Z"/>
    </g>
    <g>
      <rect class="cls-10" x="675" width="48" height="48" rx="11.25" ry="11.25"/>
      <g class="cls-18">
        <g>
          <path class="cls-4" d="M692.69,42.75c3.45,0,6.25-2.8,6.25-6.25v-6.25h-6.25c-3.45,0-6.25,2.8-6.25,6.25s2.8,6.25,6.25,6.25Z"/>
          <path class="cls-12" d="M686.44,24c0-3.45,2.8-6.25,6.25-6.25h6.25v12.5h-6.25c-3.45,0-6.25-2.8-6.25-6.25Z"/>
          <path class="cls-4" d="M686.44,11.5c0-3.45,2.8-6.25,6.25-6.25h6.25v12.5h-6.25c-3.45,0-6.25-2.8-6.25-6.25Z"/>
          <path class="cls-8" d="M698.94,5.25h6.25c3.45,0,6.25,2.8,6.25,6.25s-2.8,6.25-6.25,6.25h-6.25V5.25Z"/>
          <path class="cls-6" d="M711.44,24c0,3.45-2.8,6.25-6.25,6.25s-6.25-2.8-6.25-6.25,2.8-6.25,6.25-6.25,6.25,2.8,6.25,6.25Z"/>
        </g>
      </g>
    </g>
    <g>
      <rect class="cls-10" x="731.25" width="48" height="48" rx="11.25" ry="11.25"/>
      <path class="cls-12" d="M742.05,33.38V12.8c0-.14.06-.22.2-.22.34,0,.66,0,1.12-.02.48-.02.98-.02,1.52-.04.54-.02,1.12-.02,1.74-.04.62-.02,1.22-.02,1.82-.02,1.64,0,3,.2,4.12.62,1,.34,1.92.9,2.68,1.64.64.64,1.14,1.42,1.46,2.28.3.84.46,1.7.46,2.6,0,1.72-.4,3.14-1.2,4.26-.8,1.12-1.92,1.96-3.22,2.44-1.36.5-2.86.68-4.5.68-.48,0-.8,0-1-.02-.2-.02-.48-.02-.86-.02v6.42c.02.14-.08.26-.22.28h-3.88c-.16,0-.24-.08-.24-.26ZM746.41,16.44v6.72c.28.02.54.04.78.04h1.06c.78,0,1.56-.12,2.3-.36.64-.18,1.2-.56,1.64-1.06.42-.5.62-1.18.62-2.06.02-.62-.14-1.24-.46-1.78-.34-.52-.82-.92-1.4-1.14-.74-.3-1.54-.42-2.36-.4-.52,0-.98,0-1.36.02-.4-.02-.68,0-.82.02Z"/>
      <path class="cls-12" d="M769.65,21.94c-.6-.32-1.24-.54-1.92-.68-.74-.16-1.48-.26-2.24-.26-.4-.02-.82.04-1.2.14-.26.06-.48.2-.62.4-.1.16-.16.36-.16.54s.08.36.2.52c.18.22.42.4.68.54.46.24.94.46,1.42.66,1.08.36,2.12.86,3.08,1.46.66.42,1.2.98,1.58,1.66.32.64.48,1.34.46,2.06.02.94-.26,1.88-.78,2.66-.56.8-1.34,1.42-2.24,1.78-.98.42-2.18.64-3.62.64-.92,0-1.82-.08-2.72-.26-.7-.12-1.4-.34-2.04-.64-.14-.08-.24-.22-.22-.38v-3.48c0-.06.02-.14.08-.18.06-.04.12-.02.18.02.78.46,1.6.78,2.48.98.76.2,1.56.3,2.36.3s1.3-.1,1.66-.28c.32-.14.54-.48.54-.84,0-.28-.16-.54-.48-.8-.32-.26-.98-.56-1.96-.94-1.02-.36-1.96-.84-2.84-1.44-.62-.44-1.14-1.02-1.52-1.7-.32-.64-.48-1.34-.46-2.04,0-.86.24-1.68.68-2.42.5-.8,1.24-1.44,2.1-1.84.94-.48,2.12-.7,3.54-.7.82,0,1.66.06,2.48.18.6.08,1.18.24,1.72.46.08.02.16.1.2.18.02.08.04.16.04.24v3.26c0,.08-.04.16-.1.2-.18.04-.28.04-.36,0Z"/>
    </g>
    <g>
      <rect class="cls-10" x="787.5" width="48" height="48" rx="11.25" ry="11.25"/>
      <path class="cls-12" d="M810.7,28.56h-7.44l-1.52,4.7c-.04.18-.2.3-.38.28h-3.76c-.22,0-.28-.12-.22-.36l6.44-18.54c.06-.2.12-.42.2-.66.08-.42.12-.86.12-1.3-.02-.1.06-.2.16-.22h5.18c.16,0,.24.06.26.16l7.3,20.6c.06.22,0,.32-.2.32h-4.18c-.14.02-.28-.08-.32-.22l-1.64-4.76h0ZM804.42,24.5h5.08c-.12-.42-.28-.92-.46-1.44-.18-.54-.36-1.12-.54-1.72-.2-.62-.38-1.22-.58-1.84-.2-.62-.38-1.2-.54-1.78-.16-.56-.3-1.08-.44-1.56h-.04c-.18.86-.4,1.72-.68,2.58-.3.96-.6,1.96-.92,2.96-.28,1.02-.58,1.96-.88,2.8h0Z"/>
      <path class="cls-12" d="M821.5,15.96c-.66.02-1.3-.24-1.78-.7-.46-.5-.7-1.16-.68-1.84-.02-.68.24-1.32.72-1.78.48-.46,1.12-.7,1.78-.7.78,0,1.38.24,1.82.7.44.48.68,1.12.66,1.78.02.68-.22,1.34-.7,1.84-.46.48-1.14.74-1.82.7ZM819.26,33.32v-15.4c0-.2.08-.28.26-.28h3.96c.18,0,.26.1.26.28v15.4c0,.22-.08.32-.26.32h-3.92c-.2,0-.3-.12-.3-.32h0Z"/>
    </g>
  </g>
</svg>