<?xml version="1.0" encoding="UTF-8"?>
<svg id="Layer_2" data-name="Layer 2" xmlns="http://www.w3.org/2000/svg" viewBox="0 0 451.08 482.59">
  <defs>
    <style>
      .cls-1 {
        fill: #fff;
      }
    </style>
  </defs>
  <g id="Layer_1-2" data-name="Layer 1">
    <g>
      <path class="cls-1" d="m213.1,114.8c-.6,7.95-1.13,15.7-1.83,23.44-.07.77-.99,1.68-1.75,2.14-3.16,1.9-6.45,3.75-6.33,8.05.12,4.39,3.49,6.47,6.92,7.91,10.31,4.33,20.74,4.27,31.07-.08,1.1-.46,2.12-1.16,3.08-1.87,4.9-3.61,5.27-9.08.01-12.02-4.29-2.41-4.84-5.51-4.98-9.64-.21-5.91-.87-11.8-1.39-18.29,5.52.56,10.76.96,15.96,1.66,23.75,3.17,46.22,10.43,67.39,21.63,21.66,11.46,40.42,26.59,56.25,45.3,15.15,17.89,26.52,37.94,33.86,60.23.68,2.06,1.68,2.7,3.78,2.6,3.8-.17,7.62.13,11.42-.1,4.63-.28,8.04,1.71,10.87,5.09,4.07,4.87,6.59,10.57,8.23,16.57,7.35,26.86,7.45,53.71-1.16,80.31-1.54,4.75-4.4,9.16-7.18,13.38-2.36,3.57-6.05,5.3-10.56,5.04-3.15-.19-6.32.04-9.47-.07-1.65-.05-2.41.47-2.93,2.13-6.7,21.35-18.06,39.93-33.58,56.01-15.46,16.02-33.59,28.2-53.76,37.46-27.13,12.45-55.78,18.78-85.45,20.44-33.47,1.87-66.31-1.77-98.15-12.72-24.56-8.44-46.93-20.72-66.16-38.34-18.91-17.32-32.79-37.95-40.47-62.53-.63-2.03-1.61-2.55-3.55-2.46-2.87.14-5.77-.13-8.63.07-4.97.35-8.55-1.87-11.46-5.6-4.48-5.75-7.06-12.41-8.73-19.38-6.19-25.78-6.25-51.49,2.12-76.83,1.59-4.83,4.48-9.32,7.32-13.61,2.36-3.57,6.07-5.24,10.58-4.97,3.7.22,7.44-.15,11.14.11,2.57.19,3.49-.88,4.24-3.13,8.76-26.09,22.81-48.98,41.91-68.77,23.85-24.72,52.45-41.56,85.27-51.4,13.64-4.09,27.59-6.55,41.76-7.75,1.36-.12,2.73-.02,4.32-.02Zm9.5,345.63c38.83-.22,72.89-8.48,104.38-26.4,25.23-14.36,46.4-33.16,60.57-58.8,20.72-37.52,20.47-74.95-2.53-111.51-12.62-20.07-30.24-35.04-50.62-46.82-29.39-16.99-61.3-25.45-95.04-27.41-34.11-1.98-67.17,2.88-98.89,15.75-26.21,10.64-49.4,25.77-67.04,48.2-25.82,32.82-32.26,69.01-16.57,108.17,10.61,26.48,29.16,46.77,52.28,62.93,34.83,24.36,73.89,35.37,113.45,35.89Z"/>
      <path class="cls-1" d="m225.53,0c23.87,0,42.94,19.12,42.89,43.02-.05,23.69-19.18,42.77-42.89,42.76-23.83,0-42.93-19.18-42.89-43.05C182.69,19.01,201.77,0,225.53,0Z"/>
      <path class="cls-1" d="m221.78,436.88c-32.77-.33-66.56-9.5-96.93-29.94-18.54-12.48-33.96-28.01-43.69-48.38-15.05-31.5-11.64-61.41,9.44-89.07,15.07-19.77,35.26-32.88,58-42.26,20.85-8.61,42.63-13.11,65.13-14.32,25.63-1.37,50.75,1.42,75.19,9.32,24.52,7.93,46.62,20.05,64.51,38.98,14.79,15.64,24.27,33.85,25.45,55.68.93,17.05-3.52,32.88-12.07,47.55-14.42,24.72-35.66,41.87-61.03,54.29-25.34,12.4-52.23,18.06-84,18.14Zm114.97-85.11c1.1-2.69,2.22-5.01,3.01-7.43,3.36-10.32,2.83-20.97,1.64-31.44-2.32-20.26-18.94-35.3-39.86-36.89-18.97-1.44-37.53,11.49-43.11,30.22-3.08,10.35-2.31,20.99-1.21,31.49.49,4.75,2.62,9.32,4.01,13.97,5.86-7.91,12.63-13.45,21.31-16.58,7.53-2.71,15.35-2.4,23.13-2,10.52.54,19.25,5.02,26.35,12.71,1.61,1.75,2.98,3.72,4.74,5.94Zm-147.76-.89c.62-1.24,1.04-2.06,1.45-2.88,5.52-11.21,4.83-23.24,3.59-34.99-2.16-20.4-19.14-35.58-40.07-37.02-19.4-1.34-37.91,11.99-43.25,31.2-2.56,9.21-1.82,18.6-1.19,27.94.37,5.48,2.2,10.61,5.09,15.51,1.69-2.08,3.17-3.96,4.71-5.79,12.78-15.12,38.56-15.16,52.42-9.09,7.16,3.14,12.69,8.25,17.26,15.12Z"/>
    </g>
  </g>
</svg>